# xmcd CD database file
#
# Track frame offsets:
#	150
#	16970
#	40047
#	56990
#	73570
#	94665
#	117022
#	143595
#	165367
#	180452
#	200967
#	231057
#	247680
#	263085
#
# Disc length: 3761 seconds
#
# Revision: 0
# Processed by: cddbd v1.5.1PL0 Copyright (c) Steve Scherf et al.
# Submitted via: CDex 1.51
#
DISCID=b10eaf0e
DTITLE=Honor Heffernan - Chasing The Moon
DYEAR=1900
DGENRE=Jazz
TTITLE0=Harpo's Blues
TTITLE1=But Beautiful
TTITLE2=Poor Butterfly
TTITLE3=Hey John
TTITLE4=I Get Along Without You Very Well
TTITLE5=Here's That Rainy Day
TTITLE6=Lush Life
TTITLE7=Mad About The Boy
TTITLE8=Down Here On The Ground
TTITLE9=Once I Loved
TTITLE10=Inside A Silent Tear
TTITLE11=Until The Real Thing Comes Along
TTITLE12=Weaver Of Dreams
TTITLE13=Dindi
EXTD=
EXTT0=
EXTT1=
EXTT2=
EXTT3=
EXTT4=
EXTT5=
EXTT6=
EXTT7=
EXTT8=
EXTT9=
EXTT10=
EXTT11=
EXTT12=
EXTT13=
PLAYORDER=
